<mxfile host="app.diagrams.net" modified="2021-08-04T02:50:21.654Z" agent="5.0 (Macintosh; Intel Mac OS X 10_15_7) AppleWebKit/537.36 (KHTML, like Gecko) Chrome/92.0.4515.107 Safari/537.36" etag="cI-SMelsgsB5XyTjnugQ" version="14.7.10" type="github">
  <diagram id="XmRP38DdqSUghFGPsZOe" name="第 1 页">
    <mxGraphModel dx="1426" dy="685" grid="1" gridSize="10" guides="1" tooltips="1" connect="1" arrows="1" fold="1" page="1" pageScale="1" pageWidth="827" pageHeight="1169" math="0" shadow="0">
      <root>
        <mxCell id="0" />
        <mxCell id="1" parent="0" />
        <mxCell id="6bAzcd_Xnqx0GCFNEPkm-1" value="" style="group" vertex="1" connectable="0" parent="1">
          <mxGeometry x="190" y="110" width="560" height="540" as="geometry" />
        </mxCell>
        <mxCell id="6bAzcd_Xnqx0GCFNEPkm-2" value="" style="endArrow=classic;html=1;dashed=1;" edge="1" parent="6bAzcd_Xnqx0GCFNEPkm-1">
          <mxGeometry width="50" height="50" relative="1" as="geometry">
            <mxPoint x="9" y="10" as="sourcePoint" />
            <mxPoint x="9" y="510" as="targetPoint" />
          </mxGeometry>
        </mxCell>
        <mxCell id="6bAzcd_Xnqx0GCFNEPkm-3" value="" style="endArrow=classic;html=1;dashed=1;" edge="1" parent="6bAzcd_Xnqx0GCFNEPkm-1">
          <mxGeometry width="50" height="50" relative="1" as="geometry">
            <mxPoint x="10" y="10" as="sourcePoint" />
            <mxPoint x="530" y="10" as="targetPoint" />
          </mxGeometry>
        </mxCell>
        <mxCell id="6bAzcd_Xnqx0GCFNEPkm-4" value="X" style="text;html=1;align=center;verticalAlign=middle;resizable=0;points=[];autosize=1;strokeColor=none;" vertex="1" parent="6bAzcd_Xnqx0GCFNEPkm-1">
          <mxGeometry x="540" width="20" height="20" as="geometry" />
        </mxCell>
        <mxCell id="6bAzcd_Xnqx0GCFNEPkm-5" value="Y" style="text;html=1;align=center;verticalAlign=middle;resizable=0;points=[];autosize=1;strokeColor=none;" vertex="1" parent="6bAzcd_Xnqx0GCFNEPkm-1">
          <mxGeometry y="520" width="20" height="20" as="geometry" />
        </mxCell>
        <mxCell id="6bAzcd_Xnqx0GCFNEPkm-6" value="" style="group" vertex="1" connectable="0" parent="6bAzcd_Xnqx0GCFNEPkm-1">
          <mxGeometry x="10" y="10" width="400" height="360" as="geometry" />
        </mxCell>
        <mxCell id="6bAzcd_Xnqx0GCFNEPkm-7" value="A" style="rounded=0;whiteSpace=wrap;html=1;" vertex="1" parent="6bAzcd_Xnqx0GCFNEPkm-6">
          <mxGeometry x="80" width="80" height="120" as="geometry" />
        </mxCell>
        <mxCell id="6bAzcd_Xnqx0GCFNEPkm-8" value="B" style="rounded=0;whiteSpace=wrap;html=1;" vertex="1" parent="6bAzcd_Xnqx0GCFNEPkm-6">
          <mxGeometry x="160" width="120" height="120" as="geometry" />
        </mxCell>
        <mxCell id="6bAzcd_Xnqx0GCFNEPkm-9" value="C" style="rounded=0;whiteSpace=wrap;html=1;" vertex="1" parent="6bAzcd_Xnqx0GCFNEPkm-6">
          <mxGeometry x="280" width="120" height="320" as="geometry" />
        </mxCell>
        <mxCell id="6bAzcd_Xnqx0GCFNEPkm-10" value="D" style="rounded=0;whiteSpace=wrap;html=1;" vertex="1" parent="6bAzcd_Xnqx0GCFNEPkm-6">
          <mxGeometry x="120" y="200" width="160" height="160" as="geometry" />
        </mxCell>
        <mxCell id="6bAzcd_Xnqx0GCFNEPkm-11" value="E" style="rounded=0;whiteSpace=wrap;html=1;" vertex="1" parent="6bAzcd_Xnqx0GCFNEPkm-6">
          <mxGeometry y="200" width="120" height="120" as="geometry" />
        </mxCell>
      </root>
    </mxGraphModel>
  </diagram>
</mxfile>
